<svg version="1.1" id="Layer_1" xmlns="http://www.w3.org/2000/svg" xmlns:xlink="http://www.w3.org/1999/xlink" x="0px" y="0px"
	 width="100%" viewBox="0 0 623 508" enable-background="new 0 0 623 508" xml:space="preserve">
<path fill="#FFFFFF" opacity="1.000000" stroke="none" 
	d="
M320.000000,509.000000 
	C213.356796,509.000000 107.213593,509.000000 1.035197,509.000000 
	C1.035197,339.727570 1.035197,170.455109 1.035197,1.091334 
	C208.559845,1.091334 416.119720,1.091334 623.839844,1.091334 
	C623.839844,170.333221 623.839844,339.666595 623.839844,509.000000 
	C522.788513,509.000000 421.644257,509.000000 320.000000,509.000000 
M387.197052,404.738098 
	C416.375275,395.139008 442.260345,380.160217 462.310791,356.577301 
	C491.841888,321.843323 501.522247,282.458160 485.845215,238.894196 
	C472.691254,202.341522 445.837860,177.811081 411.537628,161.165863 
	C371.344635,141.661026 329.027435,137.290833 285.507233,146.215942 
	C246.921127,154.129166 213.519852,171.756516 188.020721,202.523621 
	C154.913116,242.471085 150.737595,294.835175 177.228683,338.303131 
	C194.090698,365.971161 218.431915,385.166718 247.873337,397.829620 
	C293.083252,417.274658 339.401978,418.967682 387.197052,404.738098 
z"/>
<path fill="#0CE596" opacity="1.000000" stroke="none" 
	d="
M386.814880,404.853088 
	C339.401978,418.967682 293.083252,417.274658 247.873337,397.829620 
	C218.431915,385.166718 194.090698,365.971161 177.228683,338.303131 
	C150.737595,294.835175 154.913116,242.471085 188.020721,202.523621 
	C213.519852,171.756516 246.921127,154.129166 285.507233,146.215942 
	C329.027435,137.290833 371.344635,141.661026 411.537628,161.165863 
	C445.837860,177.811081 472.691254,202.341522 485.845215,238.894196 
	C501.522247,282.458160 491.841888,321.843323 462.310791,356.577301 
	C442.260345,380.160217 416.375275,395.139008 386.814880,404.853088 
M293.025085,277.436401 
	C293.025085,279.539978 293.025085,281.643555 293.025085,283.878723 
	C285.168365,283.878723 277.941345,283.878723 270.417389,283.878723 
	C271.156403,282.244598 271.871246,280.945923 272.346466,279.564789 
	C274.543243,273.180664 271.485718,266.625610 265.080536,265.633728 
	C259.967651,264.841919 254.634262,265.473907 249.042389,265.473907 
	C249.042389,271.735474 249.042389,277.688293 249.042389,283.047821 
	C247.357101,284.064911 246.200195,284.763092 245.043304,285.461304 
	C246.312424,286.622253 247.581558,287.783234 249.307861,289.362396 
	C249.307861,292.435852 249.307861,296.058197 249.307861,301.089478 
	C256.705414,298.053589 251.530029,291.436005 254.529190,288.058289 
	C259.613037,286.676300 263.801880,287.431519 265.710754,293.327545 
	C266.113251,294.570740 267.138000,295.607635 267.573395,296.845978 
	C268.686920,300.013062 270.727783,300.768005 273.921539,299.524048 
	C271.949127,295.714996 270.012726,291.975464 267.992920,288.074890 
	C276.657623,288.074890 284.705109,288.074890 293.217133,288.074890 
	C293.217133,292.238586 293.217133,295.987732 293.217133,299.938843 
	C297.999695,299.938843 302.307404,299.931549 306.615112,299.940338 
	C315.848755,299.959198 317.674591,290.846832 323.267395,286.377777 
	C323.495178,286.195770 323.425720,285.097656 323.225037,285.003998 
	C319.339264,283.189850 320.802399,279.341675 319.980377,276.420471 
	C318.277679,270.369781 313.683746,265.862122 307.318298,265.249420 
	C302.750610,264.809753 298.106506,265.163849 293.025085,265.163849 
	C293.025085,269.208221 293.025085,272.833435 293.025085,277.436401 
M327.618744,297.700165 
	C329.186005,298.580048 330.742157,300.180267 332.322571,300.204590 
	C337.041779,300.277191 341.770477,299.732117 346.890839,299.402832 
	C346.890839,294.171997 346.929688,288.878937 346.880585,283.586700 
	C346.824432,277.535126 344.850189,274.825439 339.848328,273.750244 
	C333.905273,272.472687 329.690063,274.339569 326.384186,280.810974 
	C328.994324,279.994232 330.521484,279.389587 332.105469,279.049469 
	C334.703033,278.491760 337.376343,277.654266 339.936859,277.874542 
	C340.931946,277.960144 341.985107,280.524963 342.400055,282.119629 
	C342.512604,282.552155 340.488251,283.879181 339.279022,284.239075 
	C337.388397,284.801849 335.341675,284.813599 333.387268,285.193542 
	C326.360779,286.559357 324.448883,290.224579 327.618744,297.700165 
M397.799896,282.544983 
	C394.103516,283.606415 390.422241,284.724548 386.706512,285.713287 
	C383.053680,286.685211 380.908295,288.800781 380.993256,292.743561 
	C381.074677,296.520782 382.953949,299.543213 386.574524,299.933105 
	C390.217499,300.325378 394.012177,299.309265 397.837372,298.899933 
	C398.712067,299.179321 400.091370,299.619934 401.963562,300.217987 
	C401.963562,294.274384 401.843872,289.300507 401.997345,284.335022 
	C402.149597,279.409637 401.038055,275.397461 395.690491,273.896759 
	C390.061768,272.317139 385.216400,274.265747 382.465912,279.946472 
	C384.223663,279.918243 386.012817,279.664215 387.342987,278.745514 
	C391.925507,275.580475 395.655823,276.559692 397.799896,282.544983 
M364.137115,273.646027 
	C362.231720,274.539398 360.326294,275.432739 359.147125,275.985596 
	C357.535095,275.142883 356.147583,274.417572 354.046387,273.319153 
	C354.046387,282.176605 353.939941,289.656372 354.161713,297.126373 
	C354.194794,298.239960 355.771027,299.307678 356.633362,300.396637 
	C357.128357,300.113586 357.623383,299.830505 358.118408,299.547455 
	C358.118408,294.588928 357.973022,289.624969 358.159363,284.673462 
	C358.345306,279.731689 360.950134,276.932068 364.980988,277.138153 
	C369.787476,277.383881 370.883026,280.711060 370.900848,284.755768 
	C370.922699,289.710632 370.906097,294.665619 370.906097,299.620575 
	C371.426575,299.881653 371.947052,300.142700 372.467529,300.403778 
	C373.296295,299.283875 374.766663,298.204315 374.840057,297.036926 
	C375.121460,292.562164 375.020142,288.057983 374.939423,283.567017 
	C374.812988,276.531982 372.162445,273.923340 364.137115,273.646027 
M409.136169,298.080292 
	C410.225861,298.811462 411.315552,299.542633 412.975220,300.656250 
	C412.975220,290.928528 412.975220,282.686737 412.975220,274.405670 
	C409.855408,273.219025 409.045074,274.472961 409.087402,277.279938 
	C409.187347,283.904114 409.119965,290.530792 409.136169,298.080292 
M279.234253,296.782013 
	C280.352600,297.900055 281.358429,299.207489 282.675873,299.990540 
	C282.970734,300.165771 284.777832,298.641846 285.107849,297.642365 
	C285.366913,296.857819 284.340820,294.791290 284.024994,294.820129 
	C282.492523,294.960083 281.007019,295.614563 279.234253,296.782013 
z"/>
<path fill="#EBFDF6" opacity="1.000000" stroke="none" 
	d="
M293.025085,276.947510 
	C293.025085,272.833435 293.025085,269.208221 293.025085,265.163849 
	C298.106506,265.163849 302.750610,264.809753 307.318298,265.249420 
	C313.683746,265.862122 318.277679,270.369781 319.980377,276.420471 
	C320.802399,279.341675 319.339264,283.189850 323.225037,285.003998 
	C323.425720,285.097656 323.495178,286.195770 323.267395,286.377777 
	C317.674591,290.846832 315.848755,299.959198 306.615112,299.940338 
	C302.307404,299.931549 297.999695,299.938843 293.217133,299.938843 
	C293.217133,295.987732 293.217133,292.238586 293.217133,288.074890 
	C284.705109,288.074890 276.657623,288.074890 267.992920,288.074890 
	C270.012726,291.975464 271.949127,295.714996 273.921539,299.524048 
	C270.727783,300.768005 268.686920,300.013062 267.573395,296.845978 
	C267.138000,295.607635 266.113251,294.570740 265.710754,293.327545 
	C263.801880,287.431519 259.613037,286.676300 254.529190,288.058289 
	C251.530029,291.436005 256.705414,298.053589 249.307861,301.089478 
	C249.307861,296.058197 249.307861,292.435852 249.307861,289.362396 
	C247.581558,287.783234 246.312424,286.622253 245.043304,285.461304 
	C246.200195,284.763092 247.357101,284.064911 249.042389,283.047821 
	C249.042389,277.688293 249.042389,271.735474 249.042389,265.473907 
	C254.634262,265.473907 259.967651,264.841919 265.080536,265.633728 
	C271.485718,266.625610 274.543243,273.180664 272.346466,279.564789 
	C271.871246,280.945923 271.156403,282.244598 270.417389,283.878723 
	C277.941345,283.878723 285.168365,283.878723 293.025085,283.878723 
	C293.025085,281.643555 293.025085,279.539978 293.025085,276.947510 
M303.611206,284.120300 
	C307.713623,284.120300 311.816040,284.120300 315.850647,284.120300 
	C317.045563,272.109314 311.120941,267.472595 297.586975,269.459259 
	C297.586975,274.133118 297.586975,278.850250 297.586975,284.120392 
	C299.435120,284.120392 301.043640,284.120392 303.611206,284.120300 
M266.694855,270.636719 
	C262.471405,269.881866 258.247925,269.127014 253.827972,268.337036 
	C253.827972,273.807648 253.827972,278.016968 253.827972,283.777435 
	C258.862732,282.403442 263.510010,281.861725 267.227051,279.711761 
	C268.464172,278.996216 267.315948,274.156677 266.694855,270.636719 
M312.042419,287.389038 
	C307.290070,287.389038 302.537689,287.389038 297.575073,287.389038 
	C297.575073,290.629730 297.575073,293.176880 297.575073,296.031708 
	C300.675262,296.031708 303.705170,296.724304 306.188904,295.855469 
	C309.257477,294.781982 312.128632,292.696808 314.585419,290.491974 
	C316.024170,289.200806 315.491577,287.374573 312.042419,287.389038 
z"/>
<path fill="#ECFDF7" opacity="1.000000" stroke="none" 
	d="
M327.367676,297.399963 
	C324.448883,290.224579 326.360779,286.559357 333.387268,285.193542 
	C335.341675,284.813599 337.388397,284.801849 339.279022,284.239075 
	C340.488251,283.879181 342.512604,282.552155 342.400055,282.119629 
	C341.985107,280.524963 340.931946,277.960144 339.936859,277.874542 
	C337.376343,277.654266 334.703033,278.491760 332.105469,279.049469 
	C330.521484,279.389587 328.994324,279.994232 326.384186,280.810974 
	C329.690063,274.339569 333.905273,272.472687 339.848328,273.750244 
	C344.850189,274.825439 346.824432,277.535126 346.880585,283.586700 
	C346.929688,288.878937 346.890839,294.171997 346.890839,299.402832 
	C341.770477,299.732117 337.041779,300.277191 332.322571,300.204590 
	C330.742157,300.180267 329.186005,298.580048 327.367676,297.399963 
M330.169769,294.157532 
	C332.403076,297.635193 335.590332,297.615936 338.841583,296.182220 
	C342.617950,294.516907 343.279114,291.309113 342.541016,287.399536 
	C339.581726,287.875000 336.653961,287.859558 334.178619,288.910126 
	C332.466125,289.636932 331.378052,291.834961 330.169769,294.157532 
z"/>
<path fill="#F0FDF8" opacity="1.000000" stroke="none" 
	d="
M397.826599,282.147339 
	C395.655823,276.559692 391.925507,275.580475 387.342987,278.745514 
	C386.012817,279.664215 384.223663,279.918243 382.465912,279.946472 
	C385.216400,274.265747 390.061768,272.317139 395.690491,273.896759 
	C401.038055,275.397461 402.149597,279.409637 401.997345,284.335022 
	C401.843872,289.300507 401.963562,294.274384 401.963562,300.217987 
	C400.091370,299.619934 398.712067,299.179321 397.837372,298.899933 
	C394.012177,299.309265 390.217499,300.325378 386.574524,299.933105 
	C382.953949,299.543213 381.074677,296.520782 380.993256,292.743561 
	C380.908295,288.800781 383.053680,286.685211 386.706512,285.713287 
	C390.422241,284.724548 394.103516,283.606415 397.826599,282.147339 
M386.084869,295.471649 
	C389.171936,297.643280 392.650238,297.849823 395.196960,295.315979 
	C396.985626,293.536346 397.510712,290.486725 399.024261,287.037506 
	C394.469910,287.853424 391.530762,288.221375 388.677795,288.934143 
	C385.613373,289.699768 384.100555,291.538788 386.084869,295.471649 
z"/>
<path fill="#F3FEFA" opacity="1.000000" stroke="none" 
	d="
M364.507507,273.566345 
	C372.162445,273.923340 374.812988,276.531982 374.939423,283.567017 
	C375.020142,288.057983 375.121460,292.562164 374.840057,297.036926 
	C374.766663,298.204315 373.296295,299.283875 372.467529,300.403778 
	C371.947052,300.142700 371.426575,299.881653 370.906097,299.620575 
	C370.906097,294.665619 370.922699,289.710632 370.900848,284.755768 
	C370.883026,280.711060 369.787476,277.383881 364.980988,277.138153 
	C360.950134,276.932068 358.345306,279.731689 358.159363,284.673462 
	C357.973022,289.624969 358.118408,294.588928 358.118408,299.547455 
	C357.623383,299.830505 357.128357,300.113586 356.633362,300.396637 
	C355.771027,299.307678 354.194794,298.239960 354.161713,297.126373 
	C353.939941,289.656372 354.046387,282.176605 354.046387,273.319153 
	C356.147583,274.417572 357.535095,275.142883 359.147125,275.985596 
	C360.326294,275.432739 362.231720,274.539398 364.507507,273.566345 
z"/>
<path fill="#F0FDF9" opacity="1.000000" stroke="none" 
	d="
M409.128235,297.618378 
	C409.119965,290.530792 409.187347,283.904114 409.087402,277.279938 
	C409.045074,274.472961 409.855408,273.219025 412.975220,274.405670 
	C412.975220,282.686737 412.975220,290.928528 412.975220,300.656250 
	C411.315552,299.542633 410.225861,298.811462 409.128235,297.618378 
z"/>
<path fill="#EBFDF6" opacity="1.000000" stroke="none" 
	d="
M279.369568,296.434387 
	C281.007019,295.614563 282.492523,294.960083 284.024994,294.820129 
	C284.340820,294.791290 285.366913,296.857819 285.107849,297.642365 
	C284.777832,298.641846 282.970734,300.165771 282.675873,299.990540 
	C281.358429,299.207489 280.352600,297.900055 279.369568,296.434387 
z"/>
<path fill="#12E699" opacity="1.000000" stroke="none" 
	d="
M303.131683,284.120361 
	C301.043640,284.120392 299.435120,284.120392 297.586975,284.120392 
	C297.586975,278.850250 297.586975,274.133118 297.586975,269.459259 
	C311.120941,267.472595 317.045563,272.109314 315.850647,284.120300 
	C311.816040,284.120300 307.713623,284.120300 303.131683,284.120361 
z"/>
<path fill="#1CE79D" opacity="1.000000" stroke="none" 
	d="
M266.976562,270.919617 
	C267.315948,274.156677 268.464172,278.996216 267.227051,279.711761 
	C263.510010,281.861725 258.862732,282.403442 253.827972,283.777435 
	C253.827972,278.016968 253.827972,273.807648 253.827972,268.337036 
	C258.247925,269.127014 262.471405,269.881866 266.976562,270.919617 
z"/>
<path fill="#21E79F" opacity="1.000000" stroke="none" 
	d="
M312.481506,287.394226 
	C315.491577,287.374573 316.024170,289.200806 314.585419,290.491974 
	C312.128632,292.696808 309.257477,294.781982 306.188904,295.855469 
	C303.705170,296.724304 300.675262,296.031708 297.575073,296.031708 
	C297.575073,293.176880 297.575073,290.629730 297.575073,287.389038 
	C302.537689,287.389038 307.290070,287.389038 312.481506,287.394226 
z"/>
<path fill="#16E69B" opacity="1.000000" stroke="none" 
	d="
M330.090393,293.766541 
	C331.378052,291.834961 332.466125,289.636932 334.178619,288.910126 
	C336.653961,287.859558 339.581726,287.875000 342.541016,287.399536 
	C343.279114,291.309113 342.617950,294.516907 338.841583,296.182220 
	C335.590332,297.615936 332.403076,297.635193 330.090393,293.766541 
z"/>
<path fill="#18E69C" opacity="1.000000" stroke="none" 
	d="
M385.867096,295.143250 
	C384.100555,291.538788 385.613373,289.699768 388.677795,288.934143 
	C391.530762,288.221375 394.469910,287.853424 399.024261,287.037506 
	C397.510712,290.486725 396.985626,293.536346 395.196960,295.315979 
	C392.650238,297.849823 389.171936,297.643280 385.867096,295.143250 
z"/>
</svg>